<svg class="auf-banner" width="151" height="74" viewBox="0 0 151 74" fill="none" xmlns="http://www.w3.org/2000/svg">
<g clip-path="url(#clip0_4_535)">
<path d="M150.656 74.7709C150.656 74.7709 129.988 45.182 126.018 38.8535C122.681 33.6118 118.251 29.4567 114.913 24.151C112.497 20.3795 110.081 16.6719 108.182 12.5808C105.996 7.85042 104.499 5.61309 97.5954 3.18399C95.0063 2.28905 89.4827 0.499188 86.7785 1.84159C82.2327 4.07892 78.2053 6.95549 75.2136 11.4941C74.5234 12.5169 74.0628 13.7314 74.12 15.0099C74.1779 16.0327 74.4655 17.1833 74.8681 18.0782C75.0412 18.5257 75.3287 18.9732 75.5011 19.4845C76.0768 21.4662 75.4439 23.9592 77.9178 23.7674C78.781 23.7035 78.6659 22.8725 79.5284 22.7447C80.9095 22.5529 82.0031 22.2333 82.4629 21.4023C83.844 18.6536 83.844 18.6536 86.7785 17.8225C87.3536 17.6308 89.9426 16.9276 90.2301 16.2883C90.2301 16.2883 95.8116 20.3156 96.617 20.3156C96.6749 23.1283 97.998 26.5162 97.998 26.5162C97.998 26.5162 94.2003 38.9814 90.1729 38.5339C86.1456 38.0864 78.3784 39.2371 76.134 43.9035C73.9477 48.5699 75.7314 49.2731 79.5284 48.3781C83.3262 47.4832 94.5457 47.4832 96.3294 49.0174C98.1132 50.5516 112.152 54.9623 113.36 54.8984C121.588 76.8882 121.99 80.0842 121.99 80.0842L150.656 74.7709Z" fill="#FFC500"/>
<path d="M98.9185 11.6859C96.0991 10.9827 92.935 9.70424 90.0577 9.51246C87.9292 9.38458 86.0883 10.5992 84.2466 11.8137C81.7155 13.5397 79.9318 15.2017 78.8382 18.3979C78.6086 19.0371 78.4355 19.7403 78.4355 20.4434C78.4355 21.1466 78.7231 21.8498 79.1837 22.2973C79.9318 22.9364 81.0246 22.6808 81.7727 22.0415C82.5208 21.4023 82.9235 20.4434 83.211 19.4846C83.3262 19.165 83.4413 18.8453 83.6716 18.7175C83.844 18.5896 84.017 18.5896 84.1894 18.5257C86.2027 18.2701 87.8713 17.0555 89.713 16.4163C89.8281 16.3523 90.0005 16.3523 90.1156 16.3523C90.288 16.3523 90.4611 16.5441 90.6334 16.672C92.3593 18.334 94.4305 19.4846 96.6169 20.1238C98.2283 30.927 103.061 41.2187 111.232 47.3554" stroke="#3D3935" stroke-width="2" stroke-miterlimit="10" stroke-linecap="round" stroke-linejoin="round"/>
<path d="M100.069 8.29794C96.7321 7.46694 93.1074 5.22962 89.6551 4.71822C85.9152 4.14291 78.4356 10.6632 77.8605 12.0056C76.8249 14.3068 75.8465 16.9276 75.6162 19.4847C75.5011 20.5713 75.4438 22.0416 76.134 22.9365C77.0545 24.215 78.6079 23.9593 79.414 22.7447" stroke="#3D3935" stroke-width="2" stroke-miterlimit="10" stroke-linecap="round" stroke-linejoin="round"/>
<path d="M114.913 24.4066C112.669 20.6351 110.54 16.7997 108.469 12.9642C107.031 10.3433 105.937 6.89145 103.061 5.48513C98.688 3.37564 95.9838 2.67247 92.5887 1.64969C87.8132 0.179447 84.9367 2.67247 81.2547 5.22943C78.0899 7.46676 76.0187 9.89585 74.1777 13.5395" stroke="#3D3935" stroke-width="2" stroke-miterlimit="10" stroke-linecap="round" stroke-linejoin="round"/>
<path d="M114.913 54.7704C114.395 54.8344 104.96 53.6198 96.2718 48.8894C92.0142 47.7388 87.5262 47.1635 83.1534 47.6749C81.7724 47.8667 80.3341 48.0585 78.8958 48.3142C76.8245 48.6977 75.156 48.6338 75.4435 45.6933C75.6158 43.7756 76.7666 42.1775 78.0325 41.0908C81.9447 37.511 87.4683 38.7895 92.1286 38.1503" stroke="#3D3935" stroke-width="2" stroke-miterlimit="10" stroke-linecap="round" stroke-linejoin="round"/>
<path d="M0.344727 74C0.344727 74 20.6681 45.182 24.6381 38.8535C27.9752 33.6118 32.4055 29.4567 35.7426 24.151C38.1591 20.3795 40.5756 16.6719 42.4743 12.5808C44.6607 7.85042 46.1566 5.61309 53.061 3.18399C55.6501 2.28905 61.1736 0.499187 63.8778 1.84159C67.0998 3.37576 73.0833 6.31626 73.7742 12.389C74.2341 14.8181 74.6367 17.439 74.5795 19.932C74.5795 20.6352 74.6946 22.2333 74.1189 22.7447C73.659 23.1922 72.6806 22.8086 72.1056 22.6808C70.5521 22.3611 69.2283 21.7859 68.193 20.5074C66.5819 18.5257 60.8859 16.7998 60.5982 16.1605C60.5982 16.1605 54.3843 20.1878 53.5788 20.1878C53.5213 23.0004 52.7733 26.4522 52.7733 26.4522C52.7733 26.4522 56.5707 38.9174 60.5982 38.4699C64.6258 38.0225 72.3931 39.1731 74.6367 43.8396C76.8231 48.506 75.0401 49.2092 71.2423 48.3142C67.445 47.4193 56.2255 47.4193 54.4418 48.9535C52.6582 50.4876 38.6194 54.8984 37.4112 54.8345C29.1834 76.8243 28.7807 80.0202 28.7807 80.0202L0.344727 74Z" fill="#46A0DE"/>
<path d="M36.1455 45.7574C44.3156 42.689 52.6009 31.5024 53.579 20.1239C53.5215 20.4435 59.8504 16.4802 60.1381 16.4163C62.1518 16.0967 64.7985 18.7176 67.0425 19.0372C67.2726 19.0372 68.4233 21.0188 68.711 21.2746C69.4589 22.0416 70.3221 22.6169 71.3577 22.7448C71.6453 22.7448 71.9907 22.7448 72.2782 22.553C74.5798 20.9549 71.1854 16.0327 70.1497 14.6264C69.2865 13.4758 67.7328 12.4531 66.5246 11.6859C64.6835 10.4075 62.8423 9.1929 60.7135 9.38469C57.8366 9.57647 54.6722 10.855 51.8529 11.5581" stroke="#3D3935" stroke-width="2" stroke-miterlimit="10" stroke-linecap="round" stroke-linejoin="round"/>
<path d="M50.5869 8.29794C53.924 7.46694 57.5488 5.22962 61.001 4.71822C64.7408 4.14291 72.2206 10.6632 72.7956 12.0056C73.4865 13.5397 77.456 23.1922 73.1411 23.1922C73.1411 23.1922 72.7956 23.1922 72.2206 22.7447" stroke="#3D3935" stroke-width="2" stroke-miterlimit="10" stroke-linecap="round" stroke-linejoin="round"/>
<path d="M35.7422 24.4066C37.9861 20.6351 40.115 16.7997 42.1862 12.9642C43.6247 10.3433 44.7179 6.89145 47.5947 5.48513C51.9674 3.37564 54.6716 2.67247 58.0663 1.64969C62.8417 0.179447 65.7186 2.67247 69.401 5.22943C72.7382 7.59461 73.7738 9.89585 74.0041 14.6901" stroke="#3D3935" stroke-width="2" stroke-miterlimit="10" stroke-linecap="round" stroke-linejoin="round"/>
<path d="M35.7422 54.7703C36.26 54.8342 45.696 53.6197 54.3839 48.8893C58.6416 47.7387 63.1295 47.1634 67.5022 47.6747C68.883 47.8665 70.3215 48.0583 71.7598 48.314C73.0257 48.5697 73.9462 48.9532 74.9245 47.7387C76.8227 45.3735 74.2916 42.5609 72.623 41.0267C68.7105 37.4469 63.187 38.7254 58.5266 38.0862" stroke="#3D3935" stroke-width="2" stroke-miterlimit="10" stroke-linecap="round" stroke-linejoin="round"/>
</g>
<defs>
<clipPath id="clip0_4_535">
<rect width="151" height="74" fill="white"/>
</clipPath>
</defs>
</svg>
