<svg width="64" height="65" viewBox="0 0 64 65" fill="none" xmlns="http://www.w3.org/2000/svg">
<g id="Icon" clip-path="url(#clip0_1_53)">
<path id="Vector" d="M46.724 30.4023C46.724 29.7521 47.0287 29.427 47.6383 29.427C48.2478 29.427 48.5526 29.7521 48.5526 30.4023V47.4689C48.5526 51.7762 47.0287 55.4537 43.9811 58.5013C40.9335 61.5489 37.256 63.0728 32.9487 63.0728H28.6821C26.5691 63.0728 24.5576 62.6664 22.6478 61.8537C20.738 61.041 19.0719 59.9235 17.6497 58.5013C16.2275 57.0791 15.11 55.4131 14.2973 53.5032C13.4846 51.5934 13.0783 49.582 13.0783 47.4689V43.2023C13.0783 42.6334 13.383 42.3489 13.9926 42.3489C14.6021 42.3489 14.9068 42.6334 14.9068 43.2023V47.4689C14.9068 51.2886 16.2478 54.5394 18.9297 57.2213C21.6116 59.9032 24.8624 61.2442 28.6821 61.2442H32.9487C36.7684 61.2442 40.0192 59.9032 42.7011 57.2213C45.383 54.5394 46.724 51.2886 46.724 47.4689V30.4023ZM43.5545 30.4023C43.5545 29.8334 43.8592 29.5489 44.4687 29.5489C45.0783 29.5489 45.383 29.8334 45.383 30.4023V47.4689C45.383 50.8823 44.164 53.808 41.7259 56.2461C39.2878 58.6842 36.3621 59.9032 32.9487 59.9032H28.6821C26.4878 59.9032 24.4154 59.3547 22.4649 58.2575C20.5145 57.1604 18.9907 55.6569 17.8935 53.747C16.7964 51.8372 16.2478 49.7445 16.2478 47.4689V35.4004C16.2478 34.6689 16.6135 34.2626 17.3449 34.1813H17.4668C21.0427 33.5312 23.6027 31.5807 25.1468 28.3299C25.3094 28.1674 25.3094 27.9642 25.1468 27.7204C24.9843 27.4766 24.7811 27.3547 24.5373 27.3547C24.2935 27.3547 24.0903 27.4766 23.9278 27.7204C23.1964 29.2645 22.0586 30.5242 20.5145 31.4994C18.9703 32.4747 17.3449 32.9623 15.6383 32.9623C14.4192 32.9623 13.2814 32.7388 12.2249 32.2918C11.1684 31.8448 10.2135 31.2353 9.36017 30.4632C8.50684 29.6912 7.83636 28.8175 7.34874 27.8423C7.18621 27.5172 6.9424 27.3547 6.61732 27.3547C6.37351 27.3547 6.19065 27.4766 6.06874 27.7204C5.94684 27.9642 5.92652 28.1674 6.00779 28.3299C7.63319 31.5807 10.2338 33.5312 13.8097 34.1813C14.5411 34.2626 14.9068 34.6689 14.9068 35.4004V39.0575C14.9068 39.6264 14.6021 39.9108 13.9926 39.9108C13.383 39.9108 13.0783 39.6264 13.0783 39.0575V35.888C9.09605 35.0753 6.21097 32.8404 4.42303 29.1832C4.01668 28.3705 4.05732 27.5578 4.54494 26.7451C4.62621 26.5013 4.78874 26.2982 5.03255 26.1356C4.95128 25.9731 4.91065 25.8105 4.91065 25.648L0.887793 9.92228V9.80037C0.643983 8.58133 0.867475 7.42323 1.55827 6.32609C2.24906 5.22895 3.24462 4.51783 4.54494 4.19275L5.76398 3.82704C5.92652 3.17688 6.37351 2.56736 7.10494 1.99847C7.91763 1.26704 8.8116 0.840374 9.78684 0.718468C10.7621 0.596565 11.656 0.840374 12.4687 1.4499C13.2814 2.05942 13.7284 2.8518 13.8097 3.82704C13.891 4.80228 13.6268 5.67593 13.0173 6.44799C12.4078 7.22005 11.6154 7.68736 10.6402 7.8499C10.4776 7.8499 10.3151 7.8499 10.1526 7.8499C8.12081 7.8499 6.73922 7.11847 6.00779 5.65561L4.91065 6.02132C4.09795 6.18386 3.48843 6.59021 3.08208 7.24037C2.67573 7.89053 2.55382 8.62196 2.71636 9.43466L6.73922 25.2823C6.73922 25.3635 6.73922 25.4448 6.73922 25.5261C7.71446 25.6074 8.44589 26.095 8.93351 26.9889C10.3151 29.7521 12.55 31.1337 15.6383 31.1337C17.0199 31.1337 18.3202 30.7477 19.5392 29.9756C20.7583 29.2035 21.6929 28.1674 22.343 26.867C22.7494 25.9731 23.4808 25.5261 24.5373 25.5261C24.5373 25.4448 24.5373 25.3635 24.5373 25.2823L28.5602 9.43466C28.7227 8.62196 28.5805 7.89053 28.1335 7.24037C27.6865 6.59021 27.0973 6.18386 26.3659 6.02132L25.2687 5.65561C24.9437 6.30577 24.3748 6.83402 23.5621 7.24037C22.7494 7.64672 21.896 7.8499 21.0021 7.8499C20.8395 7.8499 20.7176 7.8499 20.6364 7.8499C19.5799 7.68736 18.7468 7.22005 18.1373 6.44799C17.5278 5.67593 17.284 4.80228 17.4059 3.82704C17.5278 2.8518 17.9748 2.05942 18.7468 1.4499C19.5189 0.840374 20.3926 0.596565 21.3678 0.718468C22.343 0.840374 23.2776 1.26704 24.1716 1.99847C24.903 2.56736 25.35 3.17688 25.5126 3.82704L26.7316 4.19275C28.0319 4.51783 29.0275 5.22895 29.7183 6.32609C30.4091 7.42323 30.6326 8.58133 30.3887 9.80037V9.92228L26.3659 25.648C26.2846 25.8105 26.244 25.9731 26.244 26.1356C26.4065 26.2982 26.5691 26.5013 26.7316 26.7451C27.2192 27.5578 27.2599 28.3705 26.8535 29.1832C24.9843 32.8404 22.0586 35.0753 18.0764 35.888V47.4689C18.0764 50.3947 19.1126 52.8937 21.1849 54.9661C23.2573 57.0385 25.7564 58.0747 28.6821 58.0747H32.9487C35.8745 58.0747 38.3735 57.0385 40.4459 54.9661C42.5183 52.8937 43.5545 50.3947 43.5545 47.4689V30.4023ZM22.7087 5.53371C23.3589 5.20863 23.7043 4.88355 23.7449 4.55847C23.7856 4.23339 23.5214 3.82704 22.9526 3.33942C22.3837 2.8518 21.8148 2.56736 21.2459 2.48609C21.1646 2.48609 21.0833 2.48609 21.0021 2.48609C19.9456 2.48609 19.3767 3.01434 19.2954 4.07085C19.2141 4.55847 19.3157 4.98513 19.6002 5.35085C19.8846 5.71656 20.2706 5.94006 20.7583 6.02132C21.4084 6.1026 22.0586 5.94006 22.7087 5.53371ZM10.0306 2.48609C9.6243 2.56736 9.21795 2.70958 8.8116 2.91275C8.40525 3.11593 8.08017 3.38005 7.83636 3.70514C7.59255 4.03022 7.47065 4.31466 7.47065 4.55847C7.55192 4.96482 7.91763 5.33053 8.56779 5.65561C9.21795 5.98069 9.82747 6.1026 10.3964 6.02132C10.884 5.94006 11.2903 5.71656 11.6154 5.35085C11.9405 4.98513 12.0624 4.55847 11.9811 4.07085C11.8999 3.58323 11.6764 3.17688 11.3106 2.8518C10.9449 2.52672 10.5183 2.40482 10.0306 2.48609ZM45.8707 12.4823C47.2522 12.4823 48.5119 12.8074 49.6497 13.4575C50.7875 14.1077 51.7018 15.022 52.3926 16.2004C53.0834 17.3788 53.4287 18.6182 53.4287 19.9185C53.4287 22.0315 52.6973 23.8194 51.2345 25.2823C49.7716 26.7451 48.004 27.4766 45.9316 27.4766C43.8592 27.4766 42.0916 26.7451 40.6287 25.2823C39.1659 23.8194 38.4345 22.0518 38.4345 19.9794C38.4345 17.907 39.1659 16.1394 40.6287 14.6766C42.0916 13.2137 43.8389 12.4823 45.8707 12.4823ZM41.9087 24.0023C41.9087 24.0023 42.183 24.2766 42.7316 24.8251C43.2802 25.3737 44.3468 25.648 45.9316 25.648C47.5164 25.648 48.8573 25.0994 49.9545 24.0023C51.0516 22.9051 51.6002 21.5642 51.6002 19.9794C51.6002 18.3947 51.0516 17.0537 49.9545 15.9566C48.8573 14.8594 47.5164 14.3108 45.9316 14.3108C44.3468 14.3108 43.0059 14.8594 41.9087 15.9566C40.8116 17.0537 40.263 18.3947 40.263 19.9794C40.263 21.5642 40.8116 22.9051 41.9087 24.0023ZM43.4326 17.5413C43.4326 17.5413 43.5951 17.3686 43.9202 17.0232C44.2453 16.6778 44.8954 16.5051 45.8707 16.5051C46.8459 16.5051 47.6789 16.8505 48.3697 17.5413C49.0605 18.2321 49.4059 19.0448 49.4059 19.9794C49.4059 20.914 49.0605 21.7267 48.3697 22.4175C47.6789 23.1083 46.8459 23.4537 45.8707 23.4537C45.3018 23.4537 44.7329 23.2912 44.164 22.9661C43.5951 22.641 43.1684 22.2143 42.884 21.6861C42.5995 21.1578 42.4573 20.5686 42.4573 19.9185C42.4573 19.0245 42.7824 18.2321 43.4326 17.5413ZM45.8707 21.6251C46.1957 21.6251 46.4802 21.5439 46.724 21.3813C46.9678 21.2188 47.171 21.0156 47.3335 20.7718C47.496 20.528 47.5773 20.2435 47.5773 19.9185C47.5773 19.5121 47.4148 19.1464 47.0897 18.8213C46.7646 18.4962 46.3583 18.3337 45.8707 18.3337C45.6268 18.3337 45.3627 18.415 45.0783 18.5775C44.7938 18.7401 44.5907 18.9432 44.4687 19.187C44.3468 19.4309 44.2859 19.6747 44.2859 19.9185C44.2859 20.4061 44.4484 20.8124 44.7735 21.1375C45.0986 21.4626 45.4643 21.6251 45.8707 21.6251Z" fill="#674DF0"/>
</g>
<defs>
<clipPath id="clip0_1_53">
<rect width="64" height="64" fill="white" transform="matrix(1 0 0 -1 0 64.1699)"/>
</clipPath>
</defs>
</svg>
