<svg width="64" height="65" viewBox="0 0 64 65" fill="none" xmlns="http://www.w3.org/2000/svg">
<g id="Icon">
<path id="Vector" d="M11.52 19.407H13.4705V28.1842H11.52V19.407ZM11.52 34.0356H13.4705V42.8128H11.52V34.0356ZM46.6286 34.0356H48.5791V42.8128H46.6286V34.0356ZM46.6286 19.407H48.5791V28.1842H46.6286V19.407ZM45.6533 2.828C46.466 2.828 47.1568 3.11245 47.7257 3.68133C48.2946 4.25022 48.5791 4.94102 48.5791 5.75372V13.5556H46.6286V10.6299H13.4705V13.5556H11.52V5.75372C11.52 4.94102 11.8045 4.25022 12.3733 3.68133C12.9422 3.11245 13.633 2.828 14.4457 2.828H45.6533ZM46.6286 8.67943V5.75372C46.6286 5.10355 46.3035 4.77848 45.6533 4.77848H14.4457C13.7956 4.77848 13.4705 5.10355 13.4705 5.75372V8.67943H46.6286ZM46.6286 51.5899V48.6642H48.5791V58.4166C48.5791 59.2293 48.2946 59.9201 47.7257 60.489C47.1568 61.0578 46.466 61.3423 45.6533 61.3423H14.4457C13.633 61.3423 12.9422 61.0578 12.3733 60.489C11.8045 59.9201 11.52 59.2293 11.52 58.4166V48.6642H13.4705V51.5899H46.6286ZM45.6533 59.3918C46.3035 59.3918 46.6286 59.0667 46.6286 58.4166V53.5404H13.4705V58.4166C13.4705 59.0667 13.7956 59.3918 14.4457 59.3918H45.6533ZM28.6476 57.868C28.6476 57.868 28.5562 57.7766 28.3733 57.5937C28.1905 57.4109 28.0991 57.035 28.0991 56.4661C28.0991 55.8972 28.2819 55.4299 28.6476 55.0642C29.0133 54.6985 29.4806 54.5156 30.0495 54.5156C30.6184 54.5156 31.0857 54.6985 31.4514 55.0642C31.8172 55.4299 32 55.8972 32 56.4661C32 57.035 31.8172 57.5023 31.4514 57.868C31.0857 58.2337 30.6184 58.4166 30.0495 58.4166C29.4806 58.4166 29.0133 58.2337 28.6476 57.868ZM49.6762 32.0851H40.7771V44.7632H49.6762C49.92 43.7067 50.4889 42.7924 51.3829 42.0204C52.2768 41.2483 53.2927 40.8623 54.4305 40.8623C55.8121 40.8623 56.9702 41.3296 57.9048 42.2642C58.8394 43.1988 59.3067 44.3569 59.3067 45.7385C59.3067 47.1201 58.8394 48.2782 57.9048 49.2128C56.9702 50.1474 55.8121 50.6147 54.4305 50.6147C53.2927 50.6147 52.2768 50.2286 51.3829 49.4566C50.4889 48.6845 49.92 47.7702 49.6762 46.7137H39.8019C39.1518 46.7137 38.8267 46.3886 38.8267 45.7385V32.0851H34.8038C34.7225 32.4915 34.5803 32.8978 34.3772 33.3042C34.174 33.7105 33.9098 34.0763 33.5848 34.4013C33.2597 34.7264 32.9143 35.0109 32.5486 35.2547C32.1829 35.4985 31.7765 35.6813 31.3295 35.8032C30.8825 35.9251 30.4559 35.9861 30.0495 35.9861C28.9118 35.9861 27.8756 35.6001 26.941 34.828C26.0064 34.0559 25.4578 33.1417 25.2952 32.0851H21.2724V45.7385C21.2724 46.3886 20.9473 46.7137 20.2971 46.7137H10.4229C10.2603 47.4451 9.95556 48.0953 9.50858 48.6642C9.06159 49.2331 8.49271 49.7004 7.80191 50.0661C7.11112 50.4318 6.40001 50.6147 5.66858 50.6147C4.28699 50.6147 3.1289 50.1474 2.19429 49.2128C1.25969 48.2782 0.792389 47.1201 0.792389 45.7385C0.792389 44.3569 1.25969 43.1988 2.19429 42.2642C3.1289 41.3296 4.28699 40.8623 5.66858 40.8623C6.80636 40.8623 7.82223 41.2483 8.7162 42.0204C9.61017 42.7924 10.1791 43.7067 10.4229 44.7632H19.3219V32.0851H10.4229C10.1791 33.1417 9.61017 34.0559 8.7162 34.828C7.82223 35.6001 6.80636 35.9861 5.66858 35.9861C4.28699 35.9861 3.1289 35.5188 2.19429 34.5842C1.25969 33.6496 0.792389 32.4915 0.792389 31.1099C0.792389 29.7283 1.25969 28.5702 2.19429 27.6356C3.1289 26.701 4.28699 26.2337 5.66858 26.2337C6.80636 26.2337 7.82223 26.6197 8.7162 27.3918C9.61017 28.1639 10.1791 29.0782 10.4229 30.1347H19.3219V17.4566H10.4229C10.1791 18.5131 9.61017 19.4274 8.7162 20.1994C7.82223 20.9715 6.80636 21.3575 5.66858 21.3575C4.28699 21.3575 3.1289 20.8902 2.19429 19.9556C1.25969 19.021 0.792389 17.8629 0.792389 16.4813C0.792389 15.0997 1.25969 13.9417 2.19429 13.007C3.1289 12.0724 4.28699 11.6051 5.66858 11.6051C6.80636 11.6051 7.82223 11.9912 8.7162 12.7632C9.61017 13.5353 10.1791 14.4496 10.4229 15.5061H20.2971C20.9473 15.5061 21.2724 15.8312 21.2724 16.4813V30.1347H25.2952C25.4578 29.0782 26.0064 28.1639 26.941 27.3918C27.8756 26.6197 28.9118 26.2337 30.0495 26.2337C31.1873 26.2337 32.2235 26.6197 33.1581 27.3918C34.0927 28.1639 34.6413 29.0782 34.8038 30.1347H38.8267V16.4813C38.8267 15.8312 39.1518 15.5061 39.8019 15.5061H49.6762C49.92 14.4496 50.4889 13.5353 51.3829 12.7632C52.2768 11.9912 53.2927 11.6051 54.4305 11.6051C55.8121 11.6051 56.9702 12.0724 57.9048 13.007C58.8394 13.9417 59.3067 15.0997 59.3067 16.4813C59.3067 17.8629 58.8394 19.021 57.9048 19.9556C56.9702 20.8902 55.8121 21.3575 54.4305 21.3575C53.2927 21.3575 52.2768 20.9715 51.3829 20.1994C50.4889 19.4274 49.92 18.5131 49.6762 17.4566H40.7771V30.1347H49.6762C49.92 29.0782 50.4889 28.1639 51.3829 27.3918C52.2768 26.6197 53.2927 26.2337 54.4305 26.2337C55.8121 26.2337 56.9702 26.701 57.9048 27.6356C58.8394 28.5702 59.3067 29.7283 59.3067 31.1099C59.3067 32.4915 58.8394 33.6496 57.9048 34.5842C56.9702 35.5188 55.8121 35.9861 54.4305 35.9861C53.2927 35.9861 52.2768 35.6001 51.3829 34.828C50.4889 34.0559 49.92 33.1417 49.6762 32.0851ZM56.5029 29.0375C56.5029 29.0375 56.3606 28.8953 56.0762 28.6109C55.7918 28.3264 55.2432 28.1842 54.4305 28.1842C53.6178 28.1842 52.927 28.4686 52.3581 29.0375C51.7892 29.6064 51.5048 30.2972 51.5048 31.1099C51.5048 31.9226 51.7892 32.6134 52.3581 33.1823C52.927 33.7512 53.6178 34.0356 54.4305 34.0356C55.2432 34.0356 55.934 33.7512 56.5029 33.1823C57.0718 32.6134 57.3562 31.9226 57.3562 31.1099C57.3562 30.2972 57.0718 29.6064 56.5029 29.0375ZM56.5029 14.409C56.5029 14.409 56.3606 14.2667 56.0762 13.9823C55.7918 13.6978 55.2432 13.5556 54.4305 13.5556C53.6178 13.5556 52.927 13.8401 52.3581 14.409C51.7892 14.9778 51.5048 15.6686 51.5048 16.4813C51.5048 17.294 51.7892 17.9848 52.3581 18.5537C52.927 19.1226 53.6178 19.407 54.4305 19.407C55.2432 19.407 55.934 19.1226 56.5029 18.5537C57.0718 17.9848 57.3562 17.294 57.3562 16.4813C57.3562 15.6686 57.0718 14.9778 56.5029 14.409ZM3.5962 18.5537C3.5962 18.5537 3.73842 18.6959 4.02287 18.9804C4.30731 19.2648 4.85588 19.407 5.66858 19.407C6.48128 19.407 7.17207 19.1226 7.74096 18.5537C8.30985 17.9848 8.59429 17.294 8.59429 16.4813C8.59429 15.6686 8.30985 14.9778 7.74096 14.409C7.17207 13.8401 6.48128 13.5556 5.66858 13.5556C4.85588 13.5556 4.16509 13.8401 3.5962 14.409C3.02731 14.9778 2.74287 15.6686 2.74287 16.4813C2.74287 17.294 3.02731 17.9848 3.5962 18.5537ZM3.5962 33.1823C3.5962 33.1823 3.73842 33.3245 4.02287 33.609C4.30731 33.8934 4.85588 34.0356 5.66858 34.0356C6.48128 34.0356 7.17207 33.7512 7.74096 33.1823C8.30985 32.6134 8.59429 31.9226 8.59429 31.1099C8.59429 30.2972 8.30985 29.6064 7.74096 29.0375C7.17207 28.4686 6.48128 28.1842 5.66858 28.1842C4.85588 28.1842 4.16509 28.4686 3.5962 29.0375C3.02731 29.6064 2.74287 30.2972 2.74287 31.1099C2.74287 31.9226 3.02731 32.6134 3.5962 33.1823ZM3.5962 47.8109C3.5962 47.8109 3.73842 47.9531 4.02287 48.2375C4.30731 48.522 4.85588 48.6642 5.66858 48.6642C6.48128 48.6642 7.17207 48.3797 7.74096 47.8109C8.30985 47.242 8.59429 46.5512 8.59429 45.7385C8.59429 44.9258 8.30985 44.235 7.74096 43.6661C7.17207 43.0972 6.48128 42.8128 5.66858 42.8128C4.85588 42.8128 4.16509 43.0972 3.5962 43.6661C3.02731 44.235 2.74287 44.9258 2.74287 45.7385C2.74287 46.5512 3.02731 47.242 3.5962 47.8109ZM27.9771 33.1823C27.9771 33.1823 28.1194 33.3245 28.4038 33.609C28.6883 33.8934 29.2368 34.0356 30.0495 34.0356C30.8622 34.0356 31.553 33.7512 32.1219 33.1823C32.6908 32.6134 32.9752 31.9226 32.9752 31.1099C32.9752 30.2972 32.6908 29.6064 32.1219 29.0375C31.553 28.4686 30.8622 28.1842 30.0495 28.1842C29.2368 28.1842 28.546 28.4686 27.9771 29.0375C27.4083 29.6064 27.1238 30.2972 27.1238 31.1099C27.1238 31.9226 27.4083 32.6134 27.9771 33.1823ZM56.5029 43.6661C56.5029 43.6661 56.3606 43.5239 56.0762 43.2394C55.7918 42.955 55.2432 42.8128 54.4305 42.8128C53.6178 42.8128 52.927 43.0972 52.3581 43.6661C51.7892 44.235 51.5048 44.9258 51.5048 45.7385C51.5048 46.5512 51.7892 47.242 52.3581 47.8109C52.927 48.3797 53.6178 48.6642 54.4305 48.6642C55.2432 48.6642 55.934 48.3797 56.5029 47.8109C57.0718 47.242 57.3562 46.5512 57.3562 45.7385C57.3562 44.9258 57.0718 44.235 56.5029 43.6661Z" fill="#674DF0"/>
</g>
</svg>
