<svg width="64" height="65" viewBox="0 0 64 65" fill="none" xmlns="http://www.w3.org/2000/svg">
<g id="Icon">
<path id="Vector" d="M58.3314 10.8198C58.9816 10.8198 59.3067 11.1449 59.3067 11.7951V48.8541C59.3067 49.6668 59.0222 50.3576 58.4533 50.9265C57.8845 51.4954 57.1937 51.7798 56.381 51.7798H36.7543L39.3143 55.6808H47.6038C48.254 55.6808 48.5791 56.0059 48.5791 56.656V60.557C48.5791 61.2071 48.254 61.5322 47.6038 61.5322H12.4952C11.8451 61.5322 11.52 61.2071 11.52 60.557V56.656C11.52 56.0059 11.8451 55.6808 12.4952 55.6808H20.7848L23.3448 51.7798H3.7181C2.9054 51.7798 2.21461 51.4954 1.64572 50.9265C1.07683 50.3576 0.792389 49.6668 0.792389 48.8541V11.7951C0.792389 11.1449 1.11747 10.8198 1.76763 10.8198H5.66858V9.84461C5.66858 9.03191 5.95302 8.34112 6.52191 7.77223C7.0908 7.20334 7.7816 6.91889 8.59429 6.91889H9.56953V5.94366C9.56953 5.53731 9.77271 5.25286 10.1791 5.09032C13.7549 3.70874 17.4527 3.01794 21.2724 3.01794C25.1733 3.01794 28.0991 3.87127 30.0495 5.57794C32 3.87127 34.9257 3.01794 38.8267 3.01794C42.6464 3.01794 46.3441 3.70874 49.92 5.09032C50.3264 5.25286 50.5295 5.53731 50.5295 5.94366V6.91889H51.5048C52.3175 6.91889 53.0083 7.20334 53.5771 7.77223C54.146 8.34112 54.4305 9.03191 54.4305 9.84461V10.8198H58.3314ZM31.0248 7.28461V33.0065C33.9505 32.2751 36.9168 31.9094 39.9238 31.9094C42.8495 31.9094 45.7346 32.2344 48.5791 32.8846V6.67508C45.4095 5.61858 42.1587 5.04969 38.8267 4.96842C35.2508 4.96842 32.6502 5.74048 31.0248 7.28461ZM11.52 6.67508V32.8846C14.1206 32.2344 16.7619 31.9094 19.4438 31.9094C19.5251 31.9094 19.647 31.9094 19.8095 31.9094C22.8978 31.9094 25.986 32.2751 29.0743 33.0065V7.28461C27.4489 5.74048 24.8483 4.96842 21.2724 4.96842C17.9403 4.96842 14.6895 5.53731 11.52 6.67508ZM7.61906 9.84461V36.176C7.61906 36.8262 7.94413 37.1513 8.59429 37.1513H28.0991C28.7492 37.1513 29.0743 37.4764 29.0743 38.1265C29.0743 38.7767 29.3994 39.1018 30.0495 39.1018C30.6997 39.1018 31.0248 38.7767 31.0248 38.1265C31.0248 37.4764 31.3498 37.1513 32 37.1513H51.5048C52.1549 37.1513 52.48 36.8262 52.48 36.176V9.84461C52.48 9.19445 52.1549 8.86937 51.5048 8.86937H50.5295V34.2256C50.5295 34.8757 50.2045 35.2008 49.5543 35.2008C49.473 35.2008 49.3511 35.1602 49.1886 35.0789C48.6197 34.9164 47.807 34.7132 46.7505 34.4694C45.694 34.2256 43.52 34.0833 40.2286 34.0427C36.9371 34.0021 33.6254 34.3881 30.2933 35.2008C30.2121 35.2008 30.1308 35.2008 30.0495 35.2008C29.9683 35.2008 29.887 35.2008 29.8057 35.2008C26.4737 34.3881 23.1619 34.0021 19.8705 34.0427C16.5791 34.0833 14.4051 34.2256 13.3486 34.4694C12.2921 34.7132 11.4794 34.9164 10.9105 35.0789C10.7479 35.1602 10.626 35.2008 10.5448 35.2008C9.89461 35.2008 9.56953 34.8757 9.56953 34.2256V8.86937H8.59429C7.94413 8.86937 7.61906 9.19445 7.61906 9.84461ZM46.6286 57.6313H13.4705V59.5818H46.6286V57.6313ZM36.9981 55.6808L34.4381 51.7798H25.661L23.101 55.6808H36.9981ZM57.3562 48.8541V46.9037H2.74287V48.8541C2.74287 49.5043 3.06794 49.8294 3.7181 49.8294H56.381C57.0311 49.8294 57.3562 49.5043 57.3562 48.8541ZM57.3562 44.9532V12.7703H54.4305V36.176C54.4305 36.9887 54.146 37.6795 53.5771 38.2484C53.0083 38.8173 52.3175 39.1018 51.5048 39.1018H32.8533C32.6908 39.4268 32.4673 39.7519 32.1829 40.077C31.8984 40.4021 31.5733 40.6459 31.2076 40.8084C30.8419 40.971 30.4559 41.0522 30.0495 41.0522C29.4806 41.0522 28.9321 40.8694 28.4038 40.5037C27.8756 40.1379 27.4895 39.6706 27.2457 39.1018H8.59429C7.7816 39.1018 7.0908 38.8173 6.52191 38.2484C5.95302 37.6795 5.66858 36.9887 5.66858 36.176V12.7703H2.74287V44.9532H57.3562ZM53.4552 41.0522H55.4057V43.0027H53.4552V41.0522ZM49.5543 41.0522H51.5048V43.0027H49.5543V41.0522ZM4.69334 41.0522H6.64382V43.0027H4.69334V41.0522ZM14.6895 20.5722L14.2019 18.6217C15.6648 18.2154 17.087 17.6059 18.4686 16.7932C17.7372 15.9805 17.087 15.1271 16.5181 14.2332L18.2248 13.2579C18.7937 14.0706 19.4032 14.8833 20.0533 15.696C21.2724 14.6395 22.0038 13.3392 22.2476 11.7951H14.4457V9.84461H19.3219V7.89413H21.2724V9.84461H26.1486V11.7951H24.1981C23.9543 13.9081 23.0197 15.6554 21.3943 17.037C22.2883 17.7684 23.3041 18.2967 24.4419 18.6217L23.9543 20.5722C22.4102 20.0846 21.0692 19.3125 19.9314 18.256C18.306 19.2313 16.5587 20.0033 14.6895 20.5722ZM37.9733 16.6713L36.8762 20.816L34.9257 20.3284L37.8514 9.6008C38.014 9.11318 38.3391 8.86937 38.8267 8.86937H40.7771C41.2648 8.86937 41.5898 9.11318 41.7524 9.6008L44.6781 20.3284L42.7276 20.816L41.6305 16.6713H37.9733ZM39.5581 10.8198L38.461 14.7208H41.1429L40.0457 10.8198H39.5581ZM13.4705 23.4979H20.2971V25.4484H13.4705V23.4979ZM22.2476 23.4979H27.1238V25.4484H22.2476V23.4979ZM13.4705 27.3989H17.3714V29.3494H13.4705V27.3989ZM19.3219 27.3989H27.1238V29.3494H19.3219V27.3989ZM32.9752 23.4979H37.8514V25.4484H32.9752V23.4979ZM39.8019 23.4979H46.6286V25.4484H39.8019V23.4979ZM32.9752 27.3989H35.901V29.3494H32.9752V27.3989ZM37.8514 27.3989H41.7524V29.3494H37.8514V27.3989ZM43.7029 27.3989H46.6286V29.3494H43.7029V27.3989Z" fill="#674DF0"/>
</g>
</svg>
