<svg width="64" height="65" viewBox="0 0 64 65" fill="none" xmlns="http://www.w3.org/2000/svg">
<g id="Icon">
<path id="Vector" d="M18.3467 33.4405C18.3467 32.7903 18.6718 32.4653 19.3219 32.4653H54.4305C55.0806 32.4653 55.4057 32.7903 55.4057 33.4405V47.0938H53.4552V38.3167H20.2971V42.2177H18.3467V33.4405ZM53.4552 34.4157H20.2971V36.3662H53.4552V34.4157ZM6.64382 27.5891V47.0938H4.69334V22.7129C4.69334 22.0627 5.01842 21.7377 5.66858 21.7377H9.56953V11.9853C9.56953 11.3351 9.89461 11.01 10.5448 11.01H16.3962C17.0464 11.01 17.3714 11.3351 17.3714 11.9853V21.7377H21.2724C21.9225 21.7377 22.2476 22.0627 22.2476 22.7129V30.5148H20.2971V27.5891H6.64382ZM11.52 12.9605V21.7377H15.421V12.9605H11.52ZM20.2971 23.6881H6.64382V25.6386H20.2971V23.6881ZM26.1486 18.8119V30.5148H24.1981V13.9357C24.1981 13.2856 24.5232 12.9605 25.1733 12.9605H27.1238V11.9853C27.1238 11.1726 27.4083 10.4818 27.9771 9.91289C28.546 9.344 29.2368 9.05956 30.0495 9.05956H32.9752V5.1586H31.0248V3.20813H37.8514C38.0952 3.20813 38.3391 3.2894 38.5829 3.45193L40.5333 5.40241L39.0705 6.86527L37.4857 5.1586H34.9257V9.05956H37.8514C38.6641 9.05956 39.3549 9.344 39.9238 9.91289C40.4927 10.4818 40.7771 11.1726 40.7771 11.9853V12.9605H42.7276C43.3778 12.9605 43.7029 13.2856 43.7029 13.9357V20.7624H41.7524V18.8119H26.1486ZM29.0743 11.9853V12.9605H38.8267V11.9853C38.8267 11.3351 38.5016 11.01 37.8514 11.01H30.0495C29.3994 11.01 29.0743 11.3351 29.0743 11.9853ZM41.7524 14.911H26.1486V16.8615H41.7524V14.911ZM39.0705 23.0786C39.233 22.8348 39.4768 22.7129 39.8019 22.7129H53.4552C54.1054 22.7129 54.4305 23.038 54.4305 23.6881C54.4305 23.6881 54.4305 23.7288 54.4305 23.81L53.6991 30.6367L51.7486 30.3929L52.3581 24.6634H40.8991L41.5086 30.3929L39.5581 30.6367L38.8267 23.81C38.8267 23.7288 38.8267 23.6881 38.8267 23.6881C38.8267 23.4443 38.9079 23.2411 39.0705 23.0786ZM12.4952 29.5396H14.4457V31.49H12.4952V29.5396ZM10.5448 33.4405H16.3962V35.391H10.5448V33.4405ZM32.9752 20.7624H34.9257V22.7129H32.9752V20.7624ZM31.0248 24.6634H36.8762V26.6138H31.0248V24.6634ZM54.4305 49.0443C55.8121 49.0443 56.9702 49.5116 57.9048 50.4462C58.8394 51.3808 59.3067 52.5389 59.3067 53.9205C59.3067 54.4894 59.0222 54.8145 58.4533 54.8957L39.8019 56.7243V61.7224H37.8514V55.871C37.8514 55.3021 38.1359 54.977 38.7048 54.8957L57.2343 53.0672C57.0718 52.6608 56.8483 52.3154 56.5638 52.031C56.2794 51.7465 55.9543 51.5027 55.5886 51.2996C55.2229 51.0964 54.8368 50.9948 54.4305 50.9948H42.7276V49.0443H49.5543V48.8005C49.5543 48.3129 49.3714 47.8862 49.0057 47.5205C48.64 47.1548 48.2133 46.9313 47.7257 46.85L39.5581 46.3624C39.3956 46.3624 39.233 46.3624 39.0705 46.3624C37.0387 46.3624 35.3321 47.0532 33.9505 48.4348C33.4629 49.0037 32.9752 49.6945 32.4876 50.5072C32 51.3199 31.6343 52.1732 31.3905 53.0672C31.1467 53.9611 31.0248 54.7738 31.0248 55.5053V55.6272V61.7224H29.0743V55.6272V55.5053C29.0743 54.3675 28.7898 53.1078 28.221 51.7262C27.6521 50.3446 26.9613 49.2475 26.1486 48.4348C24.767 47.0532 23.0603 46.3624 21.0286 46.3624C20.866 46.3624 20.7035 46.3624 20.541 46.3624L12.3733 46.85C11.8857 46.9313 11.4591 47.1548 11.0933 47.5205C10.7276 47.8862 10.5448 48.3129 10.5448 48.8005V49.0443H17.3714V50.9948H5.66858C5.09969 50.9948 4.5308 51.198 3.96191 51.6043C3.39302 52.0107 3.02731 52.4983 2.86477 53.0672L21.3943 54.8957C21.9632 54.977 22.2476 55.3021 22.2476 55.871V61.7224H20.2971V56.7243L1.64572 54.8957C1.07683 54.8145 0.792389 54.4894 0.792389 53.9205C0.792389 52.5389 1.25969 51.3808 2.19429 50.4462C3.1289 49.5116 4.28699 49.0443 5.66858 49.0443H8.59429V48.8005C8.59429 47.8253 8.96001 46.9516 9.69144 46.1796C10.4229 45.4075 11.2762 45.0215 12.2514 45.0215L20.4191 44.4119C20.6629 44.4119 20.866 44.4119 21.0286 44.4119C22.0851 44.4119 23.2432 44.6761 24.5029 45.2043C25.7625 45.7326 26.7581 46.3624 27.4895 47.0938C28.6273 48.1503 29.4806 49.41 30.0495 50.8729C30.6184 49.41 31.4718 48.1503 32.6095 47.0938C33.341 46.3624 34.3365 45.7326 35.5962 45.2043C36.8559 44.6761 38.014 44.4119 39.0705 44.4119C39.233 44.4119 39.4362 44.4119 39.68 44.4119L47.8476 45.0215C48.8229 45.0215 49.6762 45.4075 50.4076 46.1796C51.1391 46.9516 51.5048 47.8253 51.5048 48.8005V49.0443H54.4305Z" fill="#674DF0"/>
</g>
</svg>
