<svg width="64" height="65" viewBox="0 0 64 65" fill="none" xmlns="http://www.w3.org/2000/svg">
<g id="Icon">
<path id="Vector" d="M57.3562 7.67424C58.4127 7.67424 59.327 8.06027 60.0991 8.83233C60.8711 9.6044 61.2571 10.5187 61.2571 11.5752V44.7333C61.2571 45.7898 60.8711 46.7041 60.0991 47.4761C59.327 48.2482 58.4127 48.6342 57.3562 48.6342H37.2419L38.5829 52.5352H41.7524C42.4025 52.5352 42.7276 52.8603 42.7276 53.5104V55.4609H53.4552C54.1054 55.4609 54.4305 55.786 54.4305 56.4361C54.4305 57.0863 54.1054 57.4114 53.4552 57.4114H10.5448C9.89461 57.4114 9.56953 57.0863 9.56953 56.4361C9.56953 55.786 9.89461 55.4609 10.5448 55.4609H19.3219V53.5104C19.3219 52.8603 19.647 52.5352 20.2971 52.5352H23.4667L24.8076 48.6342H4.69334C3.63683 48.6342 2.72255 48.2482 1.95048 47.4761C1.17842 46.7041 0.792389 45.7898 0.792389 44.7333V11.5752C0.792389 10.5187 1.17842 9.6044 1.95048 8.83233C2.72255 8.06027 3.63683 7.67424 4.69334 7.67424H57.3562ZM40.7771 54.4857H21.2724V55.4609H40.7771V54.4857ZM25.5391 52.5352H36.5105L35.1695 48.6342H26.88L25.5391 52.5352ZM59.3067 44.7333V42.7828H2.74287V44.7333C2.74287 45.3022 2.92572 45.7695 3.29144 46.1352C3.65715 46.5009 4.12445 46.6838 4.69334 46.6838H57.3562C57.9251 46.6838 58.3924 46.5009 58.7581 46.1352C59.1238 45.7695 59.3067 45.3022 59.3067 44.7333ZM17.3714 32.0552H15.421L15.7867 40.8323H17.0057L17.3714 32.0552ZM15.5429 30.1047H17.2495L16.5181 26.2038H16.2743L15.5429 30.1047ZM14.9943 23.4C14.9943 23.4 15.0857 23.5422 15.2686 23.8266C15.4514 24.1111 15.8273 24.2533 16.3962 24.2533C16.9651 24.2533 17.4324 23.9688 17.7981 23.4C18.1638 22.8311 18.3467 22.1403 18.3467 21.3276C18.3467 20.4336 17.6965 19.2552 16.3962 17.7923C15.0959 19.2552 14.4457 20.4336 14.4457 21.3276C14.4457 22.1403 14.6286 22.8311 14.9943 23.4ZM27.0019 22.3028H23.3448L23.2229 22.5466V23.278H27.1238V22.5466L27.0019 22.3028ZM24.32 20.3523H26.0267L25.1733 18.6457L24.32 20.3523ZM27.1238 25.2285H23.2229V40.7104C23.2229 40.7917 23.2229 40.8323 23.2229 40.8323H27.1238C27.1238 40.8323 27.1238 40.7917 27.1238 40.7104V25.2285ZM35.901 21.3276C35.2508 21.3276 34.9257 21.0025 34.9257 20.3523C34.9257 19.7022 35.2508 19.3771 35.901 19.3771H38.8267V17.4266H32V40.8323H38.8267V36.9314H35.901C35.2508 36.9314 34.9257 36.6063 34.9257 35.9561C34.9257 35.306 35.2508 34.9809 35.901 34.9809H38.8267V33.0304H37.8514C37.2013 33.0304 36.8762 32.7053 36.8762 32.0552C36.8762 31.405 37.2013 31.08 37.8514 31.08H38.8267V29.1295H35.901C35.2508 29.1295 34.9257 28.8044 34.9257 28.1542C34.9257 27.5041 35.2508 27.179 35.901 27.179H38.8267V25.2285H37.8514C37.2013 25.2285 36.8762 24.9034 36.8762 24.2533C36.8762 23.6031 37.2013 23.278 37.8514 23.278H38.8267V21.3276H35.901ZM47.6038 33.0304H43.7029V40.7104C43.7029 40.7917 43.7029 40.8323 43.7029 40.8323H47.6038C47.6038 40.8323 47.6038 40.7917 47.6038 40.7104V33.0304ZM43.7029 31.08H47.6038V30.3485L45.6533 26.4476L43.7029 30.3485V31.08ZM59.3067 40.8323V11.5752C59.3067 11.0063 59.1238 10.539 58.7581 10.1733C58.3924 9.80757 57.9251 9.62471 57.3562 9.62471H4.69334C4.12445 9.62471 3.65715 9.80757 3.29144 10.1733C2.92572 10.539 2.74287 11.0063 2.74287 11.5752V40.8323H13.8362L13.4705 31.08C13.4705 30.9987 13.4705 30.958 13.4705 30.958L14.4457 25.4723C13.1454 24.5784 12.4952 23.1968 12.4952 21.3276C12.4952 19.6209 13.5924 17.7517 15.7867 15.72C15.9492 15.5574 16.1524 15.4761 16.3962 15.4761C16.64 15.4761 16.8432 15.5574 17.0057 15.72C19.2 17.7517 20.2971 19.6209 20.2971 21.3276C20.2971 23.1968 19.647 24.5784 18.3467 25.4723L19.3219 30.958C19.3219 30.958 19.3219 30.9987 19.3219 31.08L18.9562 40.8323H21.2724C21.2724 40.8323 21.2724 40.7917 21.2724 40.7104V22.3028C21.2724 22.1403 21.313 21.9777 21.3943 21.8152L24.32 15.9638C24.4825 15.6387 24.767 15.4761 25.1733 15.4761C25.5797 15.4761 25.8641 15.6387 26.0267 15.9638L28.9524 21.8152C29.0337 21.9777 29.0743 22.1403 29.0743 22.3028V40.7104C29.0743 40.7917 29.0743 40.8323 29.0743 40.8323H30.0495V16.4514C30.0495 15.8012 30.3746 15.4761 31.0248 15.4761H39.8019C40.4521 15.4761 40.7771 15.8012 40.7771 16.4514V40.8323H41.7524C41.7524 40.8323 41.7524 40.7917 41.7524 40.7104V30.1047C41.7524 29.9422 41.793 29.7796 41.8743 29.6171L44.8 23.7657C44.9625 23.4406 45.247 23.278 45.6533 23.278C46.0597 23.278 46.3441 23.4406 46.5067 23.7657L49.4324 29.6171C49.5137 29.7796 49.5543 29.9422 49.5543 30.1047V40.7104C49.5543 40.7917 49.5543 40.8323 49.5543 40.8323H59.3067ZM11.52 43.758C12.1702 43.758 12.4952 44.0831 12.4952 44.7333C12.4952 45.3834 12.1702 45.7085 11.52 45.7085H5.66858C5.01842 45.7085 4.69334 45.3834 4.69334 44.7333C4.69334 44.0831 5.01842 43.758 5.66858 43.758H11.52ZM15.421 43.758C16.0711 43.758 16.3962 44.0831 16.3962 44.7333C16.3962 45.3834 16.0711 45.7085 15.421 45.7085H14.4457C13.7956 45.7085 13.4705 45.3834 13.4705 44.7333C13.4705 44.0831 13.7956 43.758 14.4457 43.758H15.421ZM24.1981 27.179C24.1981 26.5288 24.5232 26.2038 25.1733 26.2038C25.8235 26.2038 26.1486 26.5288 26.1486 27.179V37.9066C26.1486 38.5568 25.8235 38.8819 25.1733 38.8819C24.5232 38.8819 24.1981 38.5568 24.1981 37.9066V27.179ZM44.6781 34.9809C44.6781 34.3307 45.0032 34.0057 45.6533 34.0057C46.3035 34.0057 46.6286 34.3307 46.6286 34.9809V37.9066C46.6286 38.5568 46.3035 38.8819 45.6533 38.8819C45.0032 38.8819 44.6781 38.5568 44.6781 37.9066V34.9809ZM5.66858 13.5257C5.01842 13.5257 4.69334 13.2006 4.69334 12.5504C4.69334 11.9003 5.01842 11.5752 5.66858 11.5752H13.4705C14.1206 11.5752 14.4457 11.9003 14.4457 12.5504C14.4457 13.2006 14.1206 13.5257 13.4705 13.5257H5.66858ZM5.66858 16.4514C5.01842 16.4514 4.69334 16.1263 4.69334 15.4761C4.69334 14.826 5.01842 14.5009 5.66858 14.5009H7.61906C8.26921 14.5009 8.59429 14.826 8.59429 15.4761C8.59429 16.1263 8.26921 16.4514 7.61906 16.4514H5.66858ZM52.48 38.8819C51.8298 38.8819 51.5048 38.5568 51.5048 37.9066C51.5048 37.2565 51.8298 36.9314 52.48 36.9314H56.381C57.0311 36.9314 57.3562 37.2565 57.3562 37.9066C57.3562 38.5568 57.0311 38.8819 56.381 38.8819H52.48ZM55.4057 35.9561C54.7556 35.9561 54.4305 35.6311 54.4305 34.9809C54.4305 34.3307 54.7556 34.0057 55.4057 34.0057H56.381C57.0311 34.0057 57.3562 34.3307 57.3562 34.9809C57.3562 35.6311 57.0311 35.9561 56.381 35.9561H55.4057Z" fill="#674DF0"/>
</g>
</svg>
