<svg width="64" height="65" viewBox="0 0 64 65" fill="none" xmlns="http://www.w3.org/2000/svg">
<g id="Icon">
<path id="Vector" d="M27.1238 48.279C27.774 48.279 28.0991 48.6041 28.0991 49.2543C28.0991 49.9044 27.774 50.2295 27.1238 50.2295H3.7181C3.06794 50.2295 2.74287 49.9044 2.74287 49.2543V26.8238C2.74287 26.1736 3.06794 25.8486 3.7181 25.8486C4.36826 25.8486 4.69334 26.1736 4.69334 26.8238V27.799H9.20382L2.98667 21.7038C2.82413 21.46 2.74287 21.2162 2.74287 20.9724C2.74287 20.9724 2.09271 18.5749 0.792389 13.78C0.792389 13.6987 0.792389 13.6175 0.792389 13.5362C0.792389 12.9673 1.0362 12.6422 1.52382 12.5609L35.4133 3.41809C35.4946 3.41809 35.5759 3.41809 35.6572 3.41809C36.1448 3.41809 36.4698 3.6619 36.6324 4.14952L38.5829 11.7076C38.6641 11.7889 38.7048 11.8702 38.7048 11.9514C38.7048 12.439 38.461 12.7641 37.9733 12.9267L11.3981 19.9971H38.8267C39.4768 19.9971 39.8019 20.3222 39.8019 20.9724V28.7743C39.8019 29.4244 39.4768 29.7495 38.8267 29.7495H4.69334V48.279H27.1238ZM29.6838 27.799L23.8324 21.9476H19.6876L25.5391 27.799H29.6838ZM26.5143 21.9476L32.3657 27.799H36.5105L30.6591 21.9476H26.5143ZM22.8572 27.799L17.0057 21.9476H12.861L18.7124 27.799H22.8572ZM37.8514 26.4581V21.9476H33.341L37.8514 26.4581ZM22.9791 14.8771L27.1238 7.68475L23.101 8.7819L18.9562 15.9743L22.9791 14.8771ZM29.6838 6.95333L25.5391 14.1457L29.5619 13.1705L33.7067 5.97809L29.6838 6.95333ZM16.2743 16.7057L20.4191 9.51332L16.5181 10.4886L12.3733 17.6809L16.2743 16.7057ZM9.69144 18.4124L13.8362 11.22L9.93525 12.3171L5.79048 19.5095L9.69144 18.4124ZM32.2438 12.439L36.5105 11.22L35.2914 6.95333L32.2438 12.439ZM7.25334 13.0486L2.98667 14.1457L4.08382 18.5343L7.25334 13.0486ZM6.03429 21.9476L11.8857 27.799H16.0305L10.1791 21.9476H6.03429ZM27.6114 37.6733C27.9365 37.8359 28.0991 38.1203 28.0991 38.5267C28.0991 38.933 27.9365 39.2175 27.6114 39.38L17.8591 44.2562C17.6965 44.3375 17.534 44.3781 17.3714 44.3781C16.7213 44.3781 16.3962 44.053 16.3962 43.4028V33.6505C16.3962 33.0003 16.7213 32.6752 17.3714 32.6752C17.534 32.6752 17.6965 32.7159 17.8591 32.7971L27.6114 37.6733ZM18.3467 41.8181L24.9295 38.5267L18.3467 35.2352V41.8181ZM55.4057 58.0314H50.5295V59.9819H57.3562C58.0064 59.9819 58.3314 60.307 58.3314 60.9571C58.3314 61.6073 58.0064 61.9324 57.3562 61.9324H32C31.3498 61.9324 31.0248 61.6073 31.0248 60.9571C31.0248 60.307 31.3498 59.9819 32 59.9819H38.8267V58.0314H33.9505C32.894 58.0314 31.9797 57.6454 31.2076 56.8733C30.4356 56.1013 30.0495 55.187 30.0495 54.1305V44.3781C30.0495 43.7279 30.3746 43.4028 31.0248 43.4028C31.6749 43.4028 32 43.7279 32 44.3781V54.1305C32 54.6994 32.1829 55.1667 32.5486 55.5324C32.9143 55.8981 33.3816 56.0809 33.9505 56.0809H55.4057C55.9746 56.0809 56.4419 55.8981 56.8076 55.5324C57.1733 55.1667 57.3562 54.6994 57.3562 54.1305C57.3562 53.4803 57.6813 53.1552 58.3314 53.1552C58.9816 53.1552 59.3067 53.4803 59.3067 54.1305C59.3067 55.187 58.9206 56.1013 58.1486 56.8733C57.3765 57.6454 56.4622 58.0314 55.4057 58.0314ZM48.5791 59.9819V58.0314H40.7771V59.9819H48.5791ZM55.4057 36.5762C56.4622 36.5762 57.3765 36.9622 58.1486 37.7343C58.9206 38.5063 59.3067 39.4206 59.3067 40.4771V50.2295C59.3067 50.8797 58.9816 51.2048 58.3314 51.2048C57.6813 51.2048 57.3562 50.8797 57.3562 50.2295V40.4771C57.3562 39.9082 57.1733 39.4409 56.8076 39.0752C56.4419 38.7095 55.9746 38.5267 55.4057 38.5267H53.4552C52.3987 38.5267 51.4845 38.1406 50.7124 37.3686C49.9403 36.5965 49.5543 35.6822 49.5543 34.6257C49.5543 34.0568 49.3714 33.5895 49.0057 33.2238C48.64 32.8581 48.1727 32.6752 47.6038 32.6752H41.7524C41.1835 32.6752 40.7162 32.8581 40.3505 33.2238C39.9848 33.5895 39.8019 34.0568 39.8019 34.6257C39.8019 35.6822 39.4159 36.5965 38.6438 37.3686C37.8718 38.1406 36.9575 38.5267 35.901 38.5267H33.9505C33.3816 38.5267 32.9143 38.7095 32.5486 39.0752C32.1829 39.4409 32 39.9082 32 40.4771C32 41.1273 31.6749 41.4524 31.0248 41.4524C30.3746 41.4524 30.0495 41.1273 30.0495 40.4771C30.0495 39.4206 30.4356 38.5063 31.2076 37.7343C31.9797 36.9622 32.894 36.5762 33.9505 36.5762H35.901C36.4698 36.5762 36.9371 36.3933 37.3029 36.0276C37.6686 35.6619 37.8514 35.1946 37.8514 34.6257C37.8514 33.5692 38.2375 32.6549 39.0095 31.8828C39.7816 31.1108 40.6959 30.7248 41.7524 30.7248H47.6038C48.6603 30.7248 49.5746 31.1108 50.3467 31.8828C51.1187 32.6549 51.5048 33.5692 51.5048 34.6257C51.5048 35.1946 51.6876 35.6619 52.0533 36.0276C52.4191 36.3933 52.8864 36.5762 53.4552 36.5762H55.4057ZM39.8629 52.119C39.8629 52.119 39.5276 51.7838 38.8572 51.1133C38.1867 50.4428 37.8514 49.173 37.8514 47.3038C37.8514 45.4346 38.5219 43.8295 39.8629 42.4886C41.2038 41.1476 42.8089 40.4771 44.6781 40.4771C46.5473 40.4771 48.1524 41.1476 49.4933 42.4886C50.8343 43.8295 51.5048 45.4346 51.5048 47.3038C51.5048 49.173 50.8343 50.7781 49.4933 52.119C48.1524 53.46 46.5473 54.1305 44.6781 54.1305C42.8089 54.1305 41.2038 53.46 39.8629 52.119ZM48.1524 43.8295C48.1524 43.8295 47.9187 43.5959 47.4514 43.1286C46.9841 42.6613 46.0597 42.4276 44.6781 42.4276C43.2965 42.4276 42.1384 42.8949 41.2038 43.8295C40.2692 44.7641 39.8019 45.9222 39.8019 47.3038C39.8019 48.6854 40.2692 49.8435 41.2038 50.7781C42.1384 51.7127 43.2965 52.18 44.6781 52.18C46.0597 52.18 47.2178 51.7127 48.1524 50.7781C49.087 49.8435 49.5543 48.6854 49.5543 47.3038C49.5543 45.9222 49.087 44.7641 48.1524 43.8295ZM46.7505 49.3762C46.7505 49.3762 46.6083 49.5184 46.3238 49.8028C46.0394 50.0873 45.4908 50.2295 44.6781 50.2295C43.8654 50.2295 43.1746 49.9451 42.6057 49.3762C42.0368 48.8073 41.7524 48.1165 41.7524 47.3038C41.7524 46.4911 42.0368 45.8003 42.6057 45.2314C43.1746 44.6625 43.8654 44.3781 44.6781 44.3781C45.4908 44.3781 46.1816 44.6625 46.7505 45.2314C47.3194 45.8003 47.6038 46.4911 47.6038 47.3038C47.6038 48.1165 47.3194 48.8073 46.7505 49.3762ZM45.6533 47.3038C45.6533 47.3038 45.6533 47.1413 45.6533 46.8162C45.6533 46.4911 45.3283 46.3286 44.6781 46.3286C44.0279 46.3286 43.7029 46.6536 43.7029 47.3038C43.7029 47.954 44.0279 48.279 44.6781 48.279C45.3283 48.279 45.6533 47.954 45.6533 47.3038ZM46.6286 36.5762H42.7276C42.0775 36.5762 41.7524 36.2511 41.7524 35.6009C41.7524 34.9508 42.0775 34.6257 42.7276 34.6257H46.6286C47.2787 34.6257 47.6038 34.9508 47.6038 35.6009C47.6038 36.2511 47.2787 36.5762 46.6286 36.5762ZM35.901 54.1305C35.901 54.1305 35.7384 54.1305 35.4133 54.1305C35.0883 54.1305 34.9257 53.8054 34.9257 53.1552C34.9257 52.5051 35.2508 52.18 35.901 52.18C36.5511 52.18 36.8762 52.5051 36.8762 53.1552C36.8762 53.8054 36.5511 54.1305 35.901 54.1305ZM45.6533 22.9229C44.8406 22.9229 44.1498 22.6384 43.581 22.0695C43.0121 21.5006 42.7276 20.8098 42.7276 19.9971V16.0962C42.7276 15.2835 43.0121 14.5927 43.581 14.0238C44.1498 13.4549 44.8406 13.1705 45.6533 13.1705H51.5048C52.8051 13.1705 53.6991 13.7394 54.1867 14.8771L57.1124 14.1457C57.1937 14.1457 57.2749 14.1457 57.3562 14.1457C58.0064 14.1457 58.3314 14.4708 58.3314 15.1209V20.9724C58.3314 21.6225 58.0064 21.9476 57.3562 21.9476C57.2749 21.9476 57.1937 21.9476 57.1124 21.9476L54.1867 21.2162C53.6991 22.354 52.8051 22.9229 51.5048 22.9229H45.6533ZM56.381 19.7533V16.34L54.4305 16.8276V19.2657L56.381 19.7533ZM44.6781 16.0962V19.9971C44.6781 20.6473 45.0032 20.9724 45.6533 20.9724H51.5048C52.1549 20.9724 52.48 20.6473 52.48 19.9971V16.0962C52.48 15.446 52.1549 15.1209 51.5048 15.1209H45.6533C45.0032 15.1209 44.6781 15.446 44.6781 16.0962Z" fill="#674DF0"/>
</g>
</svg>
