<svg width="20" height="23" viewBox="0 0 20 23" fill="none" xmlns="http://www.w3.org/2000/svg">
<path fill-rule="evenodd" clip-rule="evenodd" d="M9.01883 0C13.9924 0 18.0387 4.65253 18.0387 10.373C18.0387 12.3995 17.5303 14.2913 16.6535 15.8909L19.4134 19.0658C20.1955 19.9646 20.1955 21.4249 19.4134 22.3259C18.6303 23.2247 17.3608 23.2247 16.5787 22.3259L13.8188 19.151C12.4272 20.1602 10.782 20.7448 9.01883 20.7448C4.04521 20.7448 0 16.0923 0 10.373C0 4.65253 4.04521 0 9.01883 0ZM9.01883 18.4398C12.8872 18.4398 16.0345 14.8207 16.0345 10.373C16.0345 5.92297 12.8872 2.30498 9.01883 2.30498C5.15046 2.30498 2.00418 5.92297 2.00418 10.373C2.00418 14.8207 5.15046 18.4398 9.01883 18.4398Z" fill="#E63A28"/>
</svg>
