<svg width="54" height="54" viewBox="0 0 54 56" fill="none" xmlns="http://www.w3.org/2000/svg">
<path fill-rule="evenodd" clip-rule="evenodd" d="M52.3614 20.1512C51.645 23.3827 50.9365 26.6142 50.2192 29.8457C48.7666 27.9547 47.4475 25.9581 46.0553 24.0235C46.6688 21.4989 47.2219 18.958 47.784 16.4181C48.2065 14.4641 48.4351 12.3711 47.7968 10.4365C46.6599 7.23038 43.0215 5.26123 39.8056 6.06453C37.0181 6.67691 34.7482 8.54247 32.3249 9.96729C26.0118 13.7269 19.2644 16.611 12.6743 19.7917C13.2304 18.8107 14.1674 18.1638 14.9422 17.3828C19.7384 12.8647 25.052 8.98322 30.2707 5.00531C33.4104 2.63299 37.0518 0.57345 41.0484 0.542984C44.9302 0.345967 48.7596 2.33035 51.1275 5.4552C52.781 7.68027 53.5142 10.5299 53.4192 13.3115C53.4618 15.6391 52.8483 17.8987 52.3614 20.1512ZM5.77838 45.1754C6.89356 48.5044 10.7259 50.4918 14.0091 49.5697C16.6293 48.9674 18.7568 47.1953 21.0425 45.8548C27.4288 41.9825 34.3098 39.1014 40.9999 35.8577C37.4624 39.8295 33.2155 43.0478 29.0635 46.3037C25.1826 49.1391 21.5808 52.5544 17.0548 54.2879C13.7627 55.472 9.93629 55.5574 6.80252 53.8482C3.47382 52.2324 0.911981 48.939 0.367752 45.1662C-0.0607052 42.7756 0.166882 40.32 0.696268 37.967C1.58386 33.914 2.49222 29.87 3.37091 25.817C4.79283 27.7455 6.18507 29.7015 7.53476 31.6889C6.91137 34.1953 6.38594 36.726 5.81796 39.2486C5.38258 41.1822 5.1065 43.2601 5.77838 45.1754Z" fill="#2B5AE1"/>
<path fill-rule="evenodd" clip-rule="evenodd" d="M52.1024 47.9083C50.5706 51.2555 47.5576 53.9366 43.9597 54.6251C39.8691 55.5807 35.7933 54.1295 31.8175 53.2765C29.4536 52.722 27.0837 52.1898 24.7227 51.6221C26.5019 50.1059 28.473 48.8456 30.2917 47.3812C33.0296 47.9885 35.7468 48.6953 38.4917 49.2813C40.6637 49.7109 43.1098 49.7474 45.0047 48.4211C47.2043 46.8328 48.4808 43.8908 47.9138 41.166C47.5942 39.3563 46.7383 37.7162 45.7874 36.1777C41.2515 28.9155 38.0019 20.9332 34.5347 13.1115C38.367 16.8111 41.5622 21.1262 44.7335 25.4118C47.2627 29.0932 50.2965 32.4902 52.0628 36.6539C53.553 40.185 53.8449 44.4107 52.1024 47.9083ZM14.7435 5.96404C12.5864 5.55375 10.1463 5.48774 8.27611 6.84249C6.41781 8.18504 5.1928 10.4985 5.29967 12.8495C5.28186 15.4158 6.62759 17.6987 7.9377 19.7907C12.0719 26.468 15.0018 33.7982 18.2741 40.9294C18.4591 41.3681 18.5759 41.8353 18.6877 42.3024C14.8227 38.0544 11.1882 33.59 7.87338 28.8809C5.30264 25.2341 2.29651 21.7741 0.806314 17.4773C-0.366253 14.0925 -0.326673 10.1745 1.36736 6.97958C2.70122 4.2833 4.98896 2.05011 7.80708 1.06604C10.643 0.0261156 13.756 0.196728 16.6562 0.857851C20.6222 1.782 24.5921 2.69498 28.5551 3.62929C26.7542 5.13941 24.8138 6.46267 22.9495 7.88545C20.2175 7.22839 17.4874 6.55915 14.7435 5.96404Z" fill="#E63A28"/>
</svg>
