<svg width="20" height="20" viewBox="0 0 19 18" fill="var(--fill-color, #fff)" xmlns="http://www.w3.org/2000/svg">
<path d="M18.5415 17.1035L12.7935 11.3379C13.2505 10.752 13.6108 10.1016 13.8745 9.38672C14.1382 8.67188 14.27 7.91602 14.27 7.11914C14.27 6.19336 14.0942 5.32031 13.7427 4.5C13.3911 3.67969 12.9077 2.96484 12.2925 2.35547C11.6772 1.74609 10.9595 1.2627 10.1392 0.905273C9.31885 0.547852 8.4458 0.369141 7.52002 0.369141C6.59424 0.369141 5.72119 0.547852 4.90088 0.905273C4.08057 1.2627 3.36279 1.74609 2.74756 2.35547C2.13232 2.96484 1.64893 3.67969 1.29736 4.5C0.945801 5.32031 0.77002 6.19336 0.77002 7.11914C0.77002 8.05664 0.945801 8.93555 1.29736 9.75586C1.64893 10.5762 2.13232 11.291 2.74756 11.9004C3.36279 12.5098 4.08057 12.9902 4.90088 13.3418C5.72119 13.6934 6.59424 13.8691 7.52002 13.8691C8.31689 13.8691 9.07275 13.7402 9.7876 13.4824C10.5024 13.2246 11.147 12.8613 11.7212 12.3926L17.4868 18.1582C17.5571 18.2285 17.6392 18.2812 17.7329 18.3164C17.8267 18.3516 17.9204 18.3691 18.0142 18.3691C18.1196 18.3691 18.2163 18.3516 18.3042 18.3164C18.3921 18.2812 18.4712 18.2285 18.5415 18.1582C18.6938 18.0059 18.77 17.8271 18.77 17.6221C18.77 17.417 18.6938 17.2441 18.5415 17.1035ZM7.52002 12.375C6.79346 12.375 6.11084 12.2373 5.47217 11.9619C4.8335 11.6865 4.27686 11.3115 3.80225 10.8369C3.32764 10.3623 2.95264 9.80566 2.67725 9.16699C2.40186 8.52832 2.26416 7.8457 2.26416 7.11914C2.26416 6.4043 2.40186 5.72754 2.67725 5.08887C2.95264 4.4502 3.32764 3.89355 3.80225 3.41895C4.27686 2.94434 4.8335 2.56934 5.47217 2.29395C6.11084 2.01855 6.79346 1.88086 7.52002 1.88086C8.24658 1.88086 8.9292 2.01855 9.56787 2.29395C10.2065 2.56934 10.7632 2.94434 11.2378 3.41895C11.7124 3.89355 12.0874 4.4502 12.3628 5.08887C12.6382 5.72754 12.7759 6.4043 12.7759 7.11914C12.7759 7.8457 12.6382 8.52832 12.3628 9.16699C12.0874 9.80566 11.7124 10.3623 11.2378 10.8369C10.7632 11.3115 10.2065 11.6865 9.56787 11.9619C8.9292 12.2373 8.24658 12.375 7.52002 12.375Z"/>
</svg>